<?xml version="1.0" standalone="no"?>
<!DOCTYPE svg PUBLIC "-//W3C//DTD SVG 20010904//EN"
 "http://www.w3.org/TR/2001/REC-SVG-20010904/DTD/svg10.dtd">
<svg version="1.0" xmlns="http://www.w3.org/2000/svg"
 width="980.000000pt" height="980.000000pt" viewBox="0 0 980.000000 980.000000"
 preserveAspectRatio="xMidYMid meet">

<g transform="translate(0.000000,980.000000) scale(0.100000,-0.100000)"
fill="#000000" stroke="none">
<path d="M1034 8805 c-75 -16 -113 -35 -181 -89 -65 -52 -117 -130 -143 -214
-20 -64 -20 -96 -20 -3597 0 -3433 1 -3535 19 -3594 26 -84 60 -137 125 -199
62 -59 135 -97 216 -112 34 -6 528 -10 1373 -10 l1320 0 -28 28 c-33 33 -45
62 -45 111 0 21 31 200 70 397 38 198 70 362 70 367 0 4 -616 7 -1368 7
l-1369 0 -62 31 c-71 36 -123 97 -140 166 -8 29 -11 994 -11 3142 0 3072 0
3101 20 3154 23 62 76 117 140 146 45 20 56 21 2057 21 1955 0 2013 -1 2056
-19 55 -24 114 -82 140 -141 12 -28 23 -77 26 -129 l6 -84 55 -12 c30 -7 67
-15 83 -20 l27 -7 0 118 c0 160 -14 234 -57 316 -59 113 -169 197 -293 224
-94 20 -3993 19 -4086 -1z m2142 -7146 c94 -45 143 -156 113 -262 -15 -56 -93
-132 -149 -147 -136 -36 -268 54 -278 191 -8 102 42 185 132 225 48 20 129 17
182 -7z"/>
<path d="M6975 8604 c-263 -35 -439 -108 -564 -233 -70 -70 -125 -174 -135
-255 -28 -224 178 -475 487 -591 l47 -18 0 -154 c0 -110 4 -163 14 -188 15
-35 42 -55 74 -55 17 0 23 22 56 188 49 245 39 222 93 222 95 0 162 -78 171
-201 3 -40 0 -87 -8 -113 -13 -48 -69 -121 -99 -131 -21 -6 -20 -27 5 -195 27
-173 110 -297 243 -363 158 -77 390 -33 507 96 102 114 268 390 354 590 99
233 133 390 111 515 -19 109 -51 166 -146 259 -47 46 -94 102 -104 124 -96
198 -413 396 -759 474 -99 23 -282 38 -347 29z"/>
<path d="M2196 7574 c-10 -10 -15 -31 -14 -57 l1 -42 4 42 c2 23 10 46 17 52
8 7 129 12 347 14 l334 2 -337 3 c-295 2 -339 0 -352 -14z"/>
<path d="M2898 7568 c9 -9 13 -99 14 -332 l3 -321 3 310 c3 317 1 355 -20 355
-9 0 -9 -3 0 -12z"/>
<path d="M2640 7323 l-65 -68 68 65 c37 35 67 66 67 67 0 8 -10 -2 -70 -64z"/>
<path d="M2760 7386 c0 -2 7 -7 16 -10 8 -3 12 -2 9 4 -6 10 -25 14 -25 6z"/>
<path d="M2790 7316 c0 -7 -7 -19 -15 -26 -8 -7 -15 -18 -15 -24 0 -6 4 -5 9
3 5 7 13 11 17 8 5 -3 10 8 11 24 1 16 0 29 -2 29 -3 0 -5 -6 -5 -14z"/>
<path d="M2516 7201 c-32 -33 -54 -47 -65 -44 -13 5 -14 3 -3 -8 10 -11 22 -4
70 44 31 31 54 57 52 57 -3 0 -28 -22 -54 -49z"/>
<path d="M2680 7195 c-13 -14 -19 -25 -13 -25 6 0 14 6 16 13 4 9 8 9 15 -2 8
-11 10 -8 9 12 -1 15 -2 27 -3 27 0 0 -11 -11 -24 -25z"/>
<path d="M2338 7193 c7 -3 16 -2 19 1 4 3 -2 6 -13 5 -11 0 -14 -3 -6 -6z"/>
<path d="M2602 7117 c-12 -13 -22 -27 -22 -32 0 -5 6 -1 13 10 8 10 18 15 23
12 5 -3 10 3 10 14 0 23 2 24 -24 -4z"/>
<path d="M2320 7111 c0 -6 4 -13 10 -16 6 -3 7 1 4 9 -7 18 -14 21 -14 7z"/>
<path d="M2365 7060 c10 -11 20 -20 23 -20 3 0 -3 9 -13 20 -10 11 -20 20 -23
20 -3 0 3 -9 13 -20z"/>
<path d="M2525 7040 c-16 -17 -26 -30 -23 -30 10 0 62 49 57 54 -3 3 -18 -8
-34 -24z"/>
<path d="M2180 6895 c0 -8 4 -15 10 -15 5 0 7 7 4 15 -4 8 -8 15 -10 15 -2 0
-4 -7 -4 -15z"/>
<path d="M2195 6860 c3 -5 11 -10 16 -10 6 0 7 5 4 10 -3 6 -11 10 -16 10 -6
0 -7 -4 -4 -10z"/>
<path d="M2478 6853 c46 -2 118 -2 160 0 42 1 5 3 -83 3 -88 0 -123 -2 -77 -3z"/>
<path d="M2194 6378 c-19 -23 -19 -23 1 -7 11 9 27 19 35 22 13 5 13 6 -1 6
-9 1 -24 -9 -35 -21z"/>
<path d="M2893 6382 c15 -17 17 -56 17 -355 0 -258 -3 -338 -12 -344 -7 -4
-164 -10 -348 -13 l-335 -6 330 -2 c285 -2 334 0 353 14 22 15 22 15 22 354 0
294 -2 341 -16 354 -22 22 -31 20 -11 -2z"/>
<path d="M2677 6175 c-15 -14 -27 -29 -27 -32 0 -4 14 6 30 22 28 26 34 35 27
35 -1 0 -15 -11 -30 -25z"/>
<path d="M2760 6196 c0 -2 7 -7 16 -10 8 -3 12 -2 9 4 -6 10 -25 14 -25 6z"/>
<path d="M2750 6075 c-24 -25 -42 -45 -39 -45 3 0 25 20 49 45 24 25 42 45 39
45 -3 0 -25 -20 -49 -45z"/>
<path d="M2589 6083 l-24 -28 28 24 c25 23 32 31 24 31 -2 0 -14 -12 -28 -27z"/>
<path d="M6420 6064 c-14 -2 -77 -11 -140 -20 -190 -26 -611 -103 -625 -114
-19 -16 -43 -115 -56 -229 -16 -151 -6 -672 16 -821 21 -147 50 -224 85 -228
42 -5 435 67 504 92 36 13 68 21 71 18 3 -3 5 -853 5 -1889 l0 -1883 1165 0
1165 0 0 1724 0 1723 178 7 c213 9 246 15 286 55 l31 31 3 384 c2 353 1 391
-17 475 -47 215 -174 404 -350 523 -85 58 -150 89 -270 126 l-86 26 -970 2
c-533 1 -981 0 -995 -2z"/>
<path d="M2410 6000 c14 -10 27 -17 29 -14 6 5 -31 33 -44 33 -5 1 1 -8 15
-19z"/>
<path d="M2664 5988 l-29 -33 33 29 c17 17 32 31 32 33 0 8 -8 1 -36 -29z"/>
<path d="M2476 5975 c-3 -9 -11 -13 -17 -9 -8 5 -9 3 -4 -5 6 -10 11 -9 23 3
9 8 13 18 10 21 -3 3 -8 -1 -12 -10z"/>
<path d="M2320 5931 c0 -6 4 -13 10 -16 6 -3 7 1 4 9 -7 18 -14 21 -14 7z"/>
<path d="M2589 5913 l-24 -28 28 24 c25 23 32 31 24 31 -2 0 -14 -12 -28 -27z"/>
<path d="M2360 5883 c6 -13 20 -27 33 -33 20 -10 21 -10 4 4 -10 8 -25 23 -33
33 -14 17 -14 16 -4 -4z"/>
<path d="M2534 5858 l-19 -23 23 19 c21 18 27 26 19 26 -2 0 -12 -10 -23 -22z"/>
<path d="M2186 5685 c4 -8 10 -15 15 -15 4 0 6 7 3 15 -4 8 -10 15 -15 15 -4
0 -6 -7 -3 -15z"/>
<path d="M2893 5196 c16 -12 17 -41 17 -354 0 -314 -1 -342 -17 -351 -16 -9
-16 -10 -2 -11 9 0 20 7 23 16 3 9 6 167 6 353 0 337 -2 362 -34 361 -6 0 -3
-7 7 -14z"/>
<path d="M2187 5193 c-4 -3 -7 -11 -7 -17 0 -6 5 -5 12 2 6 6 9 14 7 17 -3 3
-9 2 -12 -2z"/>
<path d="M2728 5043 c7 -3 16 -2 19 1 4 3 -2 6 -13 5 -11 0 -14 -3 -6 -6z"/>
<path d="M2786 4987 c3 -10 9 -15 12 -12 3 3 0 11 -7 18 -10 9 -11 8 -5 -6z"/>
<path d="M2610 4929 c0 -5 5 -7 10 -4 6 3 10 8 10 11 0 2 -4 4 -10 4 -5 0 -10
-5 -10 -11z"/>
<path d="M2759 4893 l-24 -28 28 24 c25 23 32 31 24 31 -2 0 -14 -12 -28 -27z"/>
<path d="M2585 4900 c-3 -6 1 -7 9 -4 18 7 21 14 7 14 -6 0 -13 -4 -16 -10z"/>
<path d="M2517 4834 c-13 -18 -14 -22 -3 -18 8 3 17 13 20 21 10 25 3 23 -17
-3z"/>
<path d="M2686 4822 l-30 -37 37 34 c38 36 42 42 30 40 -5 0 -21 -17 -37 -37z"/>
<path d="M2380 4830 c0 -5 5 -10 12 -10 7 0 28 -15 48 -32 l35 -33 -30 33
c-34 38 -65 58 -65 42z"/>
<path d="M2475 4790 c-3 -6 1 -7 9 -4 18 7 21 14 7 14 -6 0 -13 -4 -16 -10z"/>
<path d="M2690 4789 c0 -5 5 -7 10 -4 6 3 10 8 10 11 0 2 -4 4 -10 4 -5 0 -10
-5 -10 -11z"/>
<path d="M2599 4733 l-24 -28 28 24 c25 23 32 31 24 31 -2 0 -14 -12 -28 -27z"/>
<path d="M2610 4709 c0 -5 5 -7 10 -4 6 3 10 8 10 11 0 2 -4 4 -10 4 -5 0 -10
-5 -10 -11z"/>
<path d="M2356 4692 c-3 -5 1 -9 9 -9 8 0 12 4 9 9 -3 4 -7 8 -9 8 -2 0 -6 -4
-9 -8z"/>
<path d="M2406 4646 c3 -8 13 -17 21 -20 25 -10 23 -3 -3 17 -18 13 -22 14
-18 3z"/>
<path d="M2184 4507 c3 -10 6 -21 6 -23 0 -2 12 -3 28 -3 20 1 22 2 7 6 -11 3
-26 12 -34 21 -13 16 -13 16 -7 -1z"/>
<path d="M2194 4008 l-19 -23 25 20 c14 11 27 21 29 22 2 2 0 3 -6 3 -5 0 -18
-10 -29 -22z"/>
<path d="M2565 4020 c182 -3 331 -7 333 -8 1 -1 7 -12 12 -24 5 -13 9 -16 9
-8 2 45 0 45 -351 45 l-333 1 330 -6z"/>
<path d="M2910 3633 c-3 -183 -2 -329 3 -324 4 4 6 153 5 332 l-3 324 -5 -332z"/>
<path d="M2182 3910 c0 -19 2 -27 5 -17 2 9 2 25 0 35 -3 9 -5 1 -5 -18z"/>
<path d="M2756 3825 c10 -8 24 -14 29 -14 6 0 1 6 -9 14 -11 8 -24 15 -30 15
-5 0 -1 -7 10 -15z"/>
<path d="M2666 3792 l-19 -27 26 24 c28 26 32 31 20 31 -5 0 -17 -13 -27 -28z"/>
<path d="M2792 3780 c0 -14 2 -19 5 -12 2 6 2 18 0 25 -3 6 -5 1 -5 -13z"/>
<path d="M4835 3749 c-115 -26 -230 -92 -305 -176 -54 -61 -111 -170 -129
-247 -16 -64 -15 -374 0 -392 15 -18 34 -18 53 2 13 13 16 43 16 168 0 227 30
315 145 432 185 187 476 189 669 4 67 -64 116 -148 135 -230 6 -25 11 -115 11
-201 0 -138 2 -158 18 -172 24 -22 38 -21 55 4 21 29 22 239 3 349 -39 222
-204 400 -421 455 -64 16 -186 18 -250 4z"/>
<path d="M2765 3720 c-3 -5 -1 -10 4 -10 6 0 11 5 11 10 0 6 -2 10 -4 10 -3 0
-8 -4 -11 -10z"/>
<path d="M2574 3698 l-19 -23 23 19 c12 11 22 21 22 23 0 8 -8 2 -26 -19z"/>
<path d="M2740 3690 c0 -5 5 -10 10 -10 6 0 10 5 10 10 0 6 -4 10 -10 10 -5 0
-10 -4 -10 -10z"/>
<path d="M2709 3663 c-13 -16 -12 -17 4 -4 9 7 17 15 17 17 0 8 -8 3 -21 -13z"/>
<path d="M2500 3625 c-12 -13 -27 -22 -33 -18 -6 4 -7 1 -2 -7 5 -8 3 -11 -6
-8 -8 3 -13 12 -13 20 1 8 -4 15 -10 15 -6 0 -20 4 -31 9 -11 4 -3 -7 18 -26
l38 -33 37 36 c20 21 34 37 31 37 -3 0 -16 -11 -29 -25z"/>
<path d="M2325 3619 c-4 -6 -5 -12 -2 -15 2 -3 7 2 10 11 7 17 1 20 -8 4z"/>
<path d="M2660 3610 c0 -5 5 -10 10 -10 6 0 10 5 10 10 0 6 -4 10 -10 10 -5 0
-10 -4 -10 -10z"/>
<path d="M2324 3528 c-4 -7 -3 -10 1 -5 5 4 20 -3 34 -15 l26 -23 -24 28 c-28
31 -28 31 -37 15z"/>
<path d="M2580 3530 c0 -5 5 -10 10 -10 6 0 10 5 10 10 0 6 -4 10 -10 10 -5 0
-10 -4 -10 -10z"/>
<path d="M2410 3450 c8 -5 20 -10 25 -10 6 0 3 5 -5 10 -8 5 -19 10 -25 10 -5
0 -3 -5 5 -10z"/>
<path d="M2195 3300 c3 -5 11 -10 16 -10 6 0 7 5 4 10 -3 6 -11 10 -16 10 -6
0 -7 -4 -4 -10z"/>
</g>
</svg>
